<?xml version="1.0" encoding="UTF-8" standalone="no"?>
<!-- Created with Inkscape (http://www.inkscape.org/) -->

<svg
   width="120mm"
   height="94mm"
   viewBox="0 0 120 94"
   version="1.1"
   id="svg2188"
   xml:space="preserve"
   sodipodi:docname="camera.svg"
   inkscape:version="1.2.2 (b0a8486541, 2022-12-01)"
   xmlns:inkscape="http://www.inkscape.org/namespaces/inkscape"
   xmlns:sodipodi="http://sodipodi.sourceforge.net/DTD/sodipodi-0.dtd"
   xmlns="http://www.w3.org/2000/svg"
   xmlns:svg="http://www.w3.org/2000/svg"><sodipodi:namedview
     id="namedview2190"
     pagecolor="#ffffff"
     bordercolor="#666666"
     borderopacity="1.0"
     inkscape:showpageshadow="2"
     inkscape:pageopacity="0.0"
     inkscape:pagecheckerboard="0"
     inkscape:deskcolor="#d1d1d1"
     inkscape:document-units="mm"
     showgrid="false"
     inkscape:zoom="1.829812"
     inkscape:cx="384.19247"
     inkscape:cy="128.15524"
     inkscape:window-width="3840"
     inkscape:window-height="2112"
     inkscape:window-x="0"
     inkscape:window-y="0"
     inkscape:window-maximized="1"
     inkscape:current-layer="layer1" /><defs
     id="defs2185" /><g
     inkscape:label="Layer 1"
     inkscape:groupmode="layer"
     id="layer1"
     transform="translate(-12.620963,-20.257668)"><circle
       style="fill:#000000;fill-opacity:0.386169;stroke-width:0.79375"
       id="path2421"
       cx="72.444099"
       cy="72.492607"
       r="25.27648" /><path
       style="fill:#000000;stroke-width:0.233028"
       d="m 22.99972,113.71487 c -4.84378,-1.30279 -9.00963,-5.76809 -9.79925,-10.50366 -0.19226,-1.15299 -0.24765,-9.903033 -0.19967,-31.539723 l 0.0664,-29.944042 0.60087,-1.542542 c 1.72146,-4.419274 4.71751,-7.302647 9.06978,-8.728657 1.13951,-0.373361 2.45102,-0.429814 11.82614,-0.50906 l 10.5445,-0.08913 0.003,-0.740536 c 0.0113,-3.015028 2.37034,-6.790038 5.2485,-8.398674 2.41332,-1.348827 1.81667,-1.313643 22.23002,-1.3109 20.35486,0.0027 19.69643,-0.03572 22.13787,1.293073 0.616834,0.335719 1.648944,1.151527 2.293594,1.812906 1.72071,1.765376 2.53546,3.544964 2.96999,6.487118 l 0.126586,0.857087 10.53708,0.08909 c 11.57244,0.09785 11.40911,0.07947 14.49855,1.631214 1.88534,0.946954 4.6489,3.767613 5.65331,5.770109 1.49632,2.983226 1.44553,1.782486 1.44998,34.276034 0.004,28.729173 -0.008,29.546453 -0.46134,31.318623 -1.21672,4.75732 -4.93262,8.56263 -9.56536,9.79551 -1.90698,0.50749 -97.34008,0.48457 -99.23032,-0.0238 z m 99.0811,-6.35145 c 1.84074,-0.90622 3.14149,-2.36985 3.80966,-4.2867 0.40677,-1.16693 0.42811,-2.70353 0.42811,-30.822663 V 42.659556 l -0.60806,-1.281652 c -0.78662,-1.658042 -2.06506,-2.941758 -3.68743,-3.702644 l -1.29717,-0.608365 -12.35046,-0.116514 C 96.958074,36.842669 95.978114,36.802029 95.404264,36.412423 94.35873,35.702584 94.04428,34.699079 94.04428,32.072357 c 0,-3.304377 -0.55749,-4.535408 -2.44679,-5.402981 -0.8786,-0.403455 -1.96465,-0.42832 -18.91832,-0.433144 -12.1536,-0.0035 -18.19893,0.07526 -18.6422,0.242734 -0.8269,0.312425 -1.87024,1.29097 -2.34369,2.198147 -0.24707,0.473393 -0.40042,1.599166 -0.47614,3.495413 -0.11865,2.971206 -0.3779,3.715398 -1.52255,4.37053 -0.38104,0.218086 -3.59674,0.319949 -12.85857,0.407325 l -12.35046,0.116514 -1.33162,0.65391 c -1.63333,0.802064 -3.03768,2.347466 -3.6707,4.039362 -0.46728,1.248911 -0.47383,1.675256 -0.47383,30.84967 0,28.634933 0.0144,29.621103 0.44858,30.763833 0.88508,2.32933 3.02853,4.16023 5.42896,4.63731 0.54823,0.10897 22.28607,0.18264 48.30632,0.16372 l 47.30954,-0.0344 z M 70.33184,100.29859 C 59.63263,99.545767 50.32026,92.460147 46.42336,82.107027 44.55288,77.137607 44.2805,70.775367 45.70735,65.381943 c 1.87051,-7.070478 6.53288,-13.16566 12.91674,-16.886238 11.79464,-6.874028 27.28477,-4.0117 35.63067,6.583974 3.642304,4.624133 5.571814,9.455367 6.07085,15.200573 0.83521,9.615425 -3.348186,18.876835 -11.13445,24.649995 -5.41431,4.01447 -11.89263,5.858543 -18.85932,5.368343 z m 7.32093,-6.479533 c 5.13368,-1.23881 9.9502,-4.50902 12.87719,-8.74308 1.59684,-2.3099 2.46449,-4.22073 3.18516,-7.01463 0.54757,-2.12283 0.58762,-2.60725 0.48978,-5.92381 C 94.1234,69.37391 93.98119,68.124649 93.59951,66.818366 90.70268,56.904163 81.59443,50.428915 71.3486,50.999739 c -9.21462,0.513372 -16.58457,6.354522 -19.61373,15.545139 -0.60806,1.844875 -0.65392,2.252454 -0.66851,5.942199 -0.0173,4.38651 0.14485,5.35028 1.43134,8.50551 2.96493,7.27173 9.46633,12.13096 17.89428,13.37443 1.38496,0.20434 5.3984,-0.0985 7.26079,-0.54796 z M 110.70574,55.16239 c -3.58562,-1.711837 -4.29202,-6.503736 -1.34944,-9.154068 1.19308,-1.07459 2.32677,-1.446062 4.03591,-1.322433 1.78972,0.129458 3.34293,1.076985 4.2982,2.622105 0.61302,0.991536 0.70524,1.358788 0.70524,2.808443 0,1.449655 -0.0922,1.816906 -0.70524,2.808443 -1.01743,1.645659 -2.52584,2.518904 -4.51006,2.610955 -1.15046,0.05337 -1.7794,-0.04154 -2.47461,-0.373445 z"
       id="path2367" /></g></svg>
